<svg width="134" height="280" viewBox="0 0 134 280" fill="none" xmlns="http://www.w3.org/2000/svg">
<path d="M11.6245 267V245.72L69.3045 155.84C73.5979 149.12 77.5179 142.867 81.0645 137.08C84.7979 131.293 87.7845 125.227 90.0245 118.88C92.4512 112.347 93.6645 104.88 93.6645 96.48C93.6645 86.0267 91.9845 77.8133 88.6245 71.84C85.2645 65.8667 79.3845 62.88 70.9845 62.88C63.8912 62.88 58.3845 64.84 54.4645 68.76C50.5445 72.68 47.8379 77.8133 46.3445 84.16C44.8512 90.5067 44.1045 97.32 44.1045 104.6V112.16H14.1445V104.32C14.1445 90.6933 15.9179 79.0267 19.4645 69.32C23.1979 59.4267 29.0779 51.7733 37.1045 46.36C45.3179 40.9467 56.1445 38.24 69.5845 38.24C87.8779 38.24 101.505 43.4667 110.465 53.92C119.425 64.1867 123.905 78.4667 123.905 96.76C123.905 106.467 122.691 114.96 120.265 122.24C118.025 129.52 115.038 136.333 111.305 142.68C107.571 149.027 103.465 155.56 98.9845 162.28L46.9045 241.8H118.585V267H11.6245Z" fill="#F2F2F2"/>
</svg>
